<svg width="18" height="18" viewBox="0 0 18 18" fill="none" xmlns="http://www.w3.org/2000/svg">
<path d="M9 0.53125C10.5469 0.53125 12.0234 0.953125 13.3594 1.72656C14.6953 2.5 15.75 3.55469 16.5234 4.89062C17.2969 6.22656 17.7188 7.70312 17.7188 9.25C17.7188 10.832 17.2969 12.2734 16.5234 13.6094C15.75 14.9453 14.6953 16.0352 13.3594 16.8086C12.0234 17.582 10.5469 17.9688 9 17.9688C7.41797 17.9688 5.97656 17.582 4.64062 16.8086C3.30469 16.0352 2.21484 14.9453 1.44141 13.6094C0.667969 12.2734 0.28125 10.832 0.28125 9.25C0.28125 7.70312 0.667969 6.22656 1.44141 4.89062C2.21484 3.55469 3.30469 2.5 4.64062 1.72656C5.97656 0.953125 7.41797 0.53125 9 0.53125ZM14.7656 4.53906C14.4844 4.89062 14.1328 5.27734 13.6758 5.66406C12.7617 6.4375 11.7422 7.03516 10.6172 7.49219C10.8281 7.98438 11.0391 8.47656 11.25 8.96875C12.3047 8.82812 13.4297 8.82812 14.6953 8.93359C15.3281 9.00391 15.9258 9.10938 16.4531 9.17969C16.418 8.33594 16.2773 7.49219 15.9961 6.71875C15.7148 5.94531 15.293 5.20703 14.7656 4.53906ZM13.9219 3.69531C13.0078 2.88672 11.9531 2.32422 10.793 2.04297C9.59766 1.76172 8.4375 1.72656 7.24219 2.00781C8.22656 3.34375 9.17578 4.82031 10.0195 6.36719C11.1445 5.98047 12.0938 5.45312 12.9375 4.75C13.3594 4.39844 13.7109 4.04688 13.9219 3.69531ZM5.83594 2.53516C4.78125 3.02734 3.86719 3.73047 3.16406 4.64453C2.42578 5.55859 1.93359 6.61328 1.72266 7.73828C2.35547 7.73828 3.09375 7.70312 3.97266 7.63281C5.58984 7.49219 7.10156 7.24609 8.57812 6.82422C7.73438 5.3125 6.82031 3.87109 5.83594 2.53516ZM1.54688 9.25C1.54688 10.1992 1.6875 11.1133 2.03906 11.957C2.39062 12.8008 2.84766 13.5742 3.48047 14.2422C4.11328 13.1523 4.95703 12.168 6.08203 11.2539C7.27734 10.2695 8.50781 9.60156 9.80859 9.25C9.63281 8.82812 9.42188 8.40625 9.21094 7.98438C7.62891 8.47656 5.94141 8.79297 4.11328 8.93359C3.12891 9.00391 2.25 9.03906 1.54688 9.03906V9.25ZM4.42969 15.1211C5.48438 16 6.71484 16.5273 8.05078 16.668C9.38672 16.8086 10.6875 16.6328 11.918 16.1055C11.6016 14.3125 11.0742 12.4492 10.3359 10.4805C8.89453 10.9727 7.62891 11.6758 6.53906 12.5898C5.55469 13.4336 4.85156 14.2773 4.42969 15.1211ZM13.1484 15.4375C13.9922 14.875 14.6953 14.1719 15.2578 13.293C15.8203 12.4492 16.1719 11.5 16.3477 10.4453C15.9258 10.3047 15.3984 10.1992 14.8008 10.1289C13.7109 9.98828 12.6914 9.98828 11.707 10.1289C12.375 12.0273 12.8672 13.7852 13.1484 15.4375Z" fill="#969999"/>
</svg>
