<svg width="46" height="46" viewBox="0 0 46 46" fill="none" xmlns="http://www.w3.org/2000/svg">
<path d="M43.6588 32.3992V32.8169L40.9326 32.6855L30.9288 32.2033L32.9531 28.7115L33.6919 27.4354L35.6079 24.1299L43.6588 14.4513V32.3992ZM23.9805 42.988L23.6053 43.1748L23.405 42.7222L22.7357 41.2092L22.5045 40.6878L19.0908 32.9767L22.5045 33.1804L23.9805 33.269L28.5548 33.542L29.7554 33.6144H29.7566L30.2032 33.6409L30.2057 33.6361L41.6521 34.1876L23.9805 42.988ZM3.63102 33.5891L3.14206 33.3449L4.78504 31.3703L6.36207 29.4734L11.311 23.5241L11.4205 23.6887L13.6015 26.9792L14.4215 28.2154L17.2772 32.5246L21.0782 41.1104L21.7408 42.6082L3.63102 33.5891ZM2.61194 13.6008V13.1831L5.33755 13.3139L15.3419 13.7967L13.3177 17.2885L12.5788 18.5646L10.6623 21.8701L2.61194 31.5487V13.6008ZM22.5045 3.01203L22.6171 2.95537L27.3227 13.0191L23.9805 12.8196L22.5045 12.731L17.9302 12.4573L16.7295 12.3856H16.7283L16.2829 12.3591L16.2799 12.3639L4.83345 11.8124L22.5045 3.01203ZM22.5045 25.7441L23.2845 24.3981L23.5345 23.9671L23.6537 23.761L23.9805 23.7809L24.6722 23.8225L26.7999 23.9491L33.8705 24.3722L32.4762 26.7766L31.7373 28.0527L29.7494 31.4818L29.3802 32.1183L28.3624 32.0574L23.9805 31.7958L22.5045 31.7072L19.1635 31.5077L22.5045 25.7441ZM18.1232 13.9426L22.5045 14.2042L23.9805 14.2928L27.3215 14.4923L28.1451 14.5417L28.6002 15.2277L30.7346 18.447L31.5533 19.6827L33.6774 22.887L26.0374 22.4301L24.4797 22.3373L23.9805 22.3071L23.6549 22.2878L23.4982 22.0509L23.2004 21.6019L22.5045 20.5519L18.1232 13.9426ZM21.1084 21.1149L21.8128 22.1775L22.1674 22.7134L22.375 23.0256L22.2116 23.3083L22.0065 23.6627L21.3747 24.7525L17.8848 30.7723L15.7516 27.553L14.9316 26.3167L12.8081 23.113L12.246 22.2649L12.6151 21.6278L14.0088 19.2234L14.7483 17.9473L16.7362 14.5182L21.1084 21.1149ZM42.8539 12.4109L43.3435 12.6551L41.7011 14.6297L40.1229 16.526L35.174 22.4759L35.065 22.3113L32.8835 19.0208L32.0641 17.7846L29.0613 13.2548L24.3605 3.2013L42.8539 12.4109ZM43.6588 11.2211L23.1351 1L2.61194 11.2211L1.13477 11.9565V34.0435L2.61194 34.7789L23.1351 45L43.6588 34.7789L45.1348 34.0435V33.1346V12.8654V11.9565L43.6588 11.2211Z" fill="black" stroke="black"/>
</svg>
